<?xml version="1.0" encoding="UTF-8" standalone="no"?><!DOCTYPE svg PUBLIC "-//W3C//DTD SVG 1.1//EN" "http://www.w3.org/Graphics/SVG/1.1/DTD/svg11.dtd">
<svg height="100%" style="fill-rule:nonzero;clip-rule:evenodd;stroke-linecap:round;stroke-linejoin:round;" xmlns:xlink="http://www.w3.org/1999/xlink" xmlns="http://www.w3.org/2000/svg" xml:space="preserve" width="100%" version="1.1" viewBox="0 0 64 64">
<path d="M31.4629+47.1081L29.6891+57.341L24.6365+57.341L26.4103+47.1081L16.3051+47.1081L17.2188+42.0187L27.3241+42.0187L29.0979+31.84L34.1505+31.84L32.3767+42.0187L42.5357+42.0187L41.6219+47.1081L31.4629+47.1081Z" opacity="1" fill="#0a1009"/>
<path d="M36.6882+33.3657L32.6031+27.0852L26.0812+33.3657L15.976+33.3657L30.238+19.5775L36.9032+19.5775L46.4351+33.3657L36.6882+33.3657Z" opacity="1" fill="#0a1009"/>
<path d="M38.2771+20.4473L34.192+14.1667L27.6702+20.4473L17.5649+20.4473L31.827+6.65902L38.4921+6.65902L48.024+20.4473L38.2771+20.4473Z" opacity="1" fill="#0a1009"/>
</svg>
