<?xml version="1.0" encoding="UTF-8" standalone="no"?><!DOCTYPE svg PUBLIC "-//W3C//DTD SVG 1.1//EN" "http://www.w3.org/Graphics/SVG/1.1/DTD/svg11.dtd">
<svg height="100%" style="fill-rule:nonzero;clip-rule:evenodd;stroke-linecap:round;stroke-linejoin:round;" xmlns:xlink="http://www.w3.org/1999/xlink" xmlns="http://www.w3.org/2000/svg" xml:space="preserve" width="100%" version="1.1" viewBox="0 0 64 16.476">
<path d="M21.3173+13.2009L19.6973+9.88593L18.7523+10.8609L18.7523+13.2009L16.7873+13.2009L16.7873+3.12093L18.7523+3.12093L18.7523+8.62593L21.1823+5.82093L23.5673+5.82093L21.0923+8.53593L23.5073+13.2009L21.3173+13.2009Z" opacity="1" fill="#0a1009"/>
<path d="M27.6623+11.7609C28.8523+11.7609+29.4473+11.0109+29.4473+9.51093C29.4473+8.02093+28.8523+7.27593+27.6623+7.27593C26.4723+7.27593+25.8773+8.02093+25.8773+9.51093C25.8773+11.0109+26.4723+11.7609+27.6623+11.7609ZM27.6623+13.3959C27.0623+13.3959+26.5273+13.3009+26.0573+13.1109C25.5873+12.9209+25.1898+12.6559+24.8648+12.3159C24.5398+11.9759+24.2923+11.5659+24.1223+11.0859C23.9523+10.6059+23.8673+10.0809+23.8673+9.51093C23.8673+8.93093+23.9548+8.40093+24.1298+7.92093C24.3048+7.44093+24.5573+7.03093+24.8873+6.69093C25.2173+6.35093+25.6148+6.08843+26.0798+5.90343C26.5448+5.71843+27.0723+5.62593+27.6623+5.62593C28.2423+5.62593+28.7623+5.71843+29.2223+5.90343C29.6823+6.08843+30.0748+6.34843+30.3998+6.68343C30.7248+7.01843+30.9748+7.42593+31.1498+7.90593C31.3248+8.38593+31.4123+8.92093+31.4123+9.51093C31.4123+10.1009+31.3248+10.6334+31.1498+11.1084C30.9748+11.5834+30.7248+11.9909+30.3998+12.3309C30.0748+12.6709+29.6798+12.9334+29.2148+13.1184C28.7498+13.3034+28.2323+13.3959+27.6623+13.3959Z" opacity="1" fill="#0a1009"/>
<path d="M36.3023+8.34093L38.1173+8.34093L38.1173+10.4409C38.1173+10.8309+38.0598+11.2034+37.9448+11.5584C37.8298+11.9134+37.6498+12.2284+37.4048+12.5034C37.1598+12.7784+36.8498+12.9959+36.4748+13.1559C36.0998+13.3159+35.6523+13.3959+35.1323+13.3959C34.5923+13.3959+34.1323+13.3159+33.7523+13.1559C33.3723+12.9959+33.0598+12.7809+32.8148+12.5109C32.5698+12.2409+32.3923+11.9259+32.2823+11.5659C32.1723+11.2059+32.1173+10.8259+32.1173+10.4259L32.1173+3.82593L34.0373+3.82593L34.0373+5.82093L38.1173+5.82093L38.1173+7.20093L34.0373+7.20093L34.0373+10.2309C34.0373+10.7009+34.1248+11.0634+34.2998+11.3184C34.4748+11.5734+34.7623+11.7009+35.1623+11.7009C35.5523+11.7009+35.8398+11.5759+36.0248+11.3259C36.2098+11.0759+36.3023+10.7209+36.3023+10.2609L36.3023+8.34093Z" opacity="1" fill="#0a1009"/>
<path d="M38.9573+13.2009L38.9573+5.82093L40.9073+5.82093L40.9073+13.2009L38.9573+13.2009ZM38.9573+4.93593L38.9573+3.12093L40.9073+3.12093L40.9073+4.93593L38.9573+4.93593Z" opacity="1" fill="#0a1009"/>
<path d="M47.8823+13.2009L46.7123+8.91093L45.5423+13.2009L43.5473+13.2009L41.4473+5.82093L43.5023+5.82093L44.7023+10.5609L45.7223+5.82093L47.7023+5.82093L48.8573+10.5609L49.9823+5.82093L51.9923+5.82093L49.8773+13.2009L47.8823+13.2009Z" opacity="1" fill="#0a1009"/>
<path d="M56.1323+11.7609C57.3223+11.7609+57.9173+11.0109+57.9173+9.51093C57.9173+8.02093+57.3223+7.27593+56.1323+7.27593C54.9423+7.27593+54.3473+8.02093+54.3473+9.51093C54.3473+11.0109+54.9423+11.7609+56.1323+11.7609ZM56.1323+13.3959C55.5323+13.3959+54.9973+13.3009+54.5273+13.1109C54.0573+12.9209+53.6598+12.6559+53.3348+12.3159C53.0098+11.9759+52.7623+11.5659+52.5923+11.0859C52.4223+10.6059+52.3373+10.0809+52.3373+9.51093C52.3373+8.93093+52.4248+8.40093+52.5998+7.92093C52.7748+7.44093+53.0273+7.03093+53.3573+6.69093C53.6873+6.35093+54.0848+6.08843+54.5498+5.90343C55.0148+5.71843+55.5423+5.62593+56.1323+5.62593C56.7123+5.62593+57.2323+5.71843+57.6923+5.90343C58.1523+6.08843+58.5448+6.34843+58.8698+6.68343C59.1948+7.01843+59.4448+7.42593+59.6198+7.90593C59.7948+8.38593+59.8823+8.92093+59.8823+9.51093C59.8823+10.1009+59.7948+10.6334+59.6198+11.1084C59.4448+11.5834+59.1948+11.9909+58.8698+12.3309C58.5448+12.6709+58.1498+12.9334+57.6848+13.1184C57.2198+13.3034+56.7023+13.3959+56.1323+13.3959Z" opacity="1" fill="#0a1009"/>
<path d="M9.32634+12.2255L8.83134+15.0605L7.42134+15.0605L7.91634+12.2255L5.09634+12.2255L5.35134+10.8155L8.17134+10.8155L8.66634+7.99548L10.0763+7.99548L9.58134+10.8155L12.4163+10.8155L12.1613+12.2255L9.32634+12.2255Z" opacity="1" fill="#0a1009"/>
<path d="M10.7845+8.41818L9.64451+6.67818L7.82451+8.41818L5.00451+8.41818L8.98451+4.59818L10.8445+4.59818L13.5045+8.41818L10.7845+8.41818Z" opacity="1" fill="#0a1009"/>
<path d="M11.2279+4.83915L10.0879+3.09915L8.26793+4.83915L5.44793+4.83915L9.42793+1.01915L11.2879+1.01915L13.9479+4.83915L11.2279+4.83915Z" opacity="1" fill="#0a1009"/>
</svg>
